<svg width="100" height="100" viewBox="0 0 100 100" fill="none" xmlns="http://www.w3.org/2000/svg">
<path d="M80.4384 60.1219V38.7122C83.0095 37.9653 85 35.6418 85 32.7374C85 29.3351 82.263 26.5137 78.7796 26.5137C77.1209 26.5137 75.545 27.1775 74.4668 28.2563L55.9716 17.7174C56.1374 17.2195 56.2204 16.7216 56.2204 16.2237C56.2204 12.8214 53.4834 10 50 10C46.5166 10 43.7796 12.7384 43.7796 16.2237C43.7796 16.7216 43.8626 17.3025 44.0284 17.7174L25.5332 28.4223C24.455 27.3435 22.8791 26.6796 21.2204 26.6796C17.8199 26.6796 15 29.4181 15 32.9034C15 35.7248 16.9076 38.1313 19.5616 38.8782V60.2048C16.9905 60.9517 15 63.2752 15 66.1796C15 69.5819 17.737 72.4034 21.2204 72.4034C22.8791 72.4034 24.455 71.7395 25.5332 70.6607L44.0284 81.2826C43.8626 81.7805 43.7796 82.2784 43.7796 82.7763C43.7796 86.1786 46.5166 89 50 89C53.4834 89 56.2204 86.2616 56.2204 82.7763C56.2204 82.2784 56.1374 81.6975 55.9716 81.2826L74.4668 70.6607C75.545 71.7395 77.1209 72.4034 78.7796 72.4034C82.1801 72.4034 85 69.6649 85 66.1796C84.9171 63.1922 83.0095 60.7857 80.4384 60.1219ZM74.4668 61.6155L55.9716 50.9107C56.1374 50.4128 56.2204 49.9149 56.2204 49.417C56.2204 48.9191 56.1374 48.3382 55.9716 47.9233L74.4668 37.3015C75.2133 38.0483 76.1256 38.5462 77.1209 38.7952V60.1219C76.0427 60.3708 75.1303 60.8687 74.4668 61.6155ZM72.8081 34.3141L54.3128 45.0189C53.5664 44.2721 52.654 43.7742 51.6588 43.5252V22.1155C52.654 21.8666 53.5664 21.2857 54.3128 20.6218L72.8081 31.2437C72.6422 31.7416 72.5592 32.2395 72.5592 32.7374C72.5592 33.3183 72.6422 33.8162 72.8081 34.3141ZM48.3412 22.1155V43.4422C47.346 43.6912 46.4337 44.2721 45.6872 44.9359L27.1919 34.3141C27.3578 33.8162 27.4408 33.3183 27.4408 32.8204C27.4408 32.3225 27.3578 31.7416 27.1919 31.3267L45.6872 20.7048C46.4337 21.3687 47.346 21.8666 48.3412 22.1155ZM25.5332 37.2185L44.0284 47.8403C43.8626 48.3382 43.7796 48.8361 43.7796 49.334C43.7796 49.8319 43.8626 50.4128 44.0284 50.8277L25.5332 61.6155C24.7867 60.8687 23.8744 60.3708 22.8791 60.1219V38.7122C23.9573 38.4632 24.8697 37.9653 25.5332 37.2185ZM27.1919 64.52L45.6872 53.8981C46.4337 54.645 47.346 55.1429 48.3412 55.3918V76.7185C47.346 76.9674 46.4337 77.5483 45.6872 78.2122L27.1919 67.5903C27.3578 67.0924 27.4408 66.5945 27.4408 66.0966C27.4408 65.5158 27.3578 65.0179 27.1919 64.52ZM51.6588 76.7185V55.3918C52.654 55.1429 53.5664 54.562 54.3128 53.8981L72.8081 64.52C72.6422 65.0179 72.5592 65.5158 72.5592 66.0137C72.5592 66.5116 72.6422 67.0924 72.8081 67.5074L54.3128 78.2122C53.5664 77.4653 52.654 76.9674 51.6588 76.7185Z" fill="white"/>
</svg>
