<svg width="100" height="100" viewBox="0 0 100 100" fill="none" xmlns="http://www.w3.org/2000/svg">
<path d="M58.872 49.44C58.6587 49.568 58.6587 49.696 58.872 49.824C63.3947 51.744 65.656 55.3067 65.656 60.512C65.656 64.4373 64.3547 67.4667 61.752 69.6C59.1493 71.7333 55.7573 72.8 51.576 72.8H35.64C35.2133 72.8 35 72.5867 35 72.16V28.64C35 28.2133 35.2133 28 35.64 28H51.064C55.5013 28 58.936 29.024 61.368 31.072C63.8427 33.0773 65.08 36.0213 65.08 39.904C65.08 44.512 63.0107 47.6907 58.872 49.44ZM41.4 33.312C41.2293 33.312 41.144 33.3973 41.144 33.568V47.072C41.144 47.2427 41.2293 47.328 41.4 47.328H51.064C53.5387 47.328 55.48 46.7093 56.888 45.472C58.3387 44.2347 59.064 42.5493 59.064 40.416C59.064 38.24 58.3387 36.512 56.888 35.232C55.48 33.952 53.5387 33.312 51.064 33.312H41.4ZM51.576 67.424C54.008 67.424 55.928 66.7627 57.336 65.44C58.7867 64.0747 59.512 62.24 59.512 59.936C59.512 57.632 58.7867 55.8187 57.336 54.496C55.8853 53.1307 53.9013 52.448 51.384 52.448H41.4C41.2293 52.448 41.144 52.5333 41.144 52.704V67.168C41.144 67.3387 41.2293 67.424 41.4 67.424H51.576Z" fill="white"/>
</svg>
